<?xml version="1.0" encoding="UTF-8" standalone="no"?>
<!DOCTYPE svg PUBLIC "-//W3C//DTD SVG 1.1//EN"
 "http://www.w3.org/Graphics/SVG/1.1/DTD/svg11.dtd">
<!-- Generated by graphviz version 2.43.0 (0)
 -->
<!-- Title: AWS F1 Static Site Pages: 1 -->
<svg width="922pt" height="399pt"
 viewBox="0.00 0.00 922.00 399.00" xmlns="http://www.w3.org/2000/svg" xmlns:xlink="http://www.w3.org/1999/xlink">
<g id="graph0" class="graph" transform="scale(1 1) rotate(0) translate(4 395)">
<title>AWS F1 Static Site</title>
<polygon fill="white" stroke="transparent" points="-4,4 -4,-395 918,-395 918,4 -4,4"/>
<text text-anchor="middle" x="457" y="-378.2" font-family="Times,serif" font-size="11.00">AWS F1 Static Website (current + next)</text>
<g id="clust1" class="cluster">
<title>cluster_local</title>
<path fill="#f8f9fb" stroke="black" d="M20,-211C20,-211 360,-211 360,-211 366,-211 372,-217 372,-223 372,-223 372,-271 372,-271 372,-277 366,-283 360,-283 360,-283 20,-283 20,-283 14,-283 8,-277 8,-271 8,-271 8,-223 8,-223 8,-217 14,-211 20,-211"/>
<text text-anchor="middle" x="190" y="-270.2" font-family="Times,serif" font-size="11.00">Local / Dev</text>
</g>
<g id="clust2" class="cluster">
<title>cluster_gh</title>
<path fill="#f3f7ff" stroke="black" d="M225.5,-291C225.5,-291 590.5,-291 590.5,-291 596.5,-291 602.5,-297 602.5,-303 602.5,-303 602.5,-351 602.5,-351 602.5,-357 596.5,-363 590.5,-363 590.5,-363 225.5,-363 225.5,-363 219.5,-363 213.5,-357 213.5,-351 213.5,-351 213.5,-303 213.5,-303 213.5,-297 219.5,-291 225.5,-291"/>
<text text-anchor="middle" x="408" y="-350.2" font-family="Times,serif" font-size="11.00">GitHub</text>
</g>
<g id="clust3" class="cluster">
<title>cluster_aws</title>
<path fill="#eef7ff" stroke="black" d="M754.5,-151C754.5,-151 892.5,-151 892.5,-151 898.5,-151 904.5,-157 904.5,-163 904.5,-163 904.5,-271 904.5,-271 904.5,-277 898.5,-283 892.5,-283 892.5,-283 754.5,-283 754.5,-283 748.5,-283 742.5,-277 742.5,-271 742.5,-271 742.5,-163 742.5,-163 742.5,-157 748.5,-151 754.5,-151"/>
<text text-anchor="middle" x="823.5" y="-270.2" font-family="Times,serif" font-size="11.00">AWS</text>
</g>
<g id="clust4" class="cluster">
<title>cluster_next</title>
<path fill="white" stroke="#999999" stroke-dasharray="5,2" d="M459,-8C459,-8 894,-8 894,-8 900,-8 906,-14 906,-20 906,-20 906,-122 906,-122 906,-128 900,-134 894,-134 894,-134 459,-134 459,-134 453,-134 447,-128 447,-122 447,-122 447,-20 447,-20 447,-14 453,-8 459,-8"/>
<text text-anchor="middle" x="676.5" y="-121.2" font-family="Times,serif" font-size="11.00">Planned Enhancements</text>
</g>
<!-- DEV -->
<g id="node1" class="node">
<title>DEV</title>
<polygon fill="#ffffff" stroke="black" points="138,-255 20,-255 16,-251 16,-219 134,-219 138,-223 138,-255"/>
<polyline fill="none" stroke="black" points="134,-251 16,-251 "/>
<polyline fill="none" stroke="black" points="134,-251 134,-219 "/>
<polyline fill="none" stroke="black" points="134,-251 138,-255 "/>
<text text-anchor="middle" x="77" y="-240" font-family="Times,serif" font-size="10.00">Dev workstation</text>
<text text-anchor="middle" x="77" y="-229" font-family="Times,serif" font-size="10.00">(Windows / VS Code)</text>
</g>
<!-- TF -->
<g id="node2" class="node">
<title>TF</title>
<path fill="#f3f7ff" stroke="black" d="M352,-255C352,-255 225,-255 225,-255 219,-255 213,-249 213,-243 213,-243 213,-231 213,-231 213,-225 219,-219 225,-219 225,-219 352,-219 352,-219 358,-219 364,-225 364,-231 364,-231 364,-243 364,-243 364,-249 358,-255 352,-255"/>
<text text-anchor="middle" x="288.5" y="-240" font-family="Times,serif" font-size="10.00">ubuntu&#45;aws (192.168.2.44)</text>
<text text-anchor="middle" x="288.5" y="-229" font-family="Times,serif" font-size="10.00">Terraform host</text>
</g>
<!-- DEV&#45;&gt;TF -->
<g id="edge2" class="edge">
<title>DEV&#45;&gt;TF</title>
<path fill="none" stroke="black" d="M138.03,-237C158.18,-237 181.04,-237 202.72,-237"/>
<polygon fill="black" stroke="black" points="202.91,-240.5 212.91,-237 202.91,-233.5 202.91,-240.5"/>
<text text-anchor="middle" x="175.5" y="-239.8" font-family="Times,serif" font-size="9.00">ssh</text>
</g>
<!-- REPO -->
<g id="node3" class="node">
<title>REPO</title>
<path fill="#eef5ff" stroke="black" d="M343.5,-335C343.5,-335 233.5,-335 233.5,-335 227.5,-335 221.5,-329 221.5,-323 221.5,-323 221.5,-311 221.5,-311 221.5,-305 227.5,-299 233.5,-299 233.5,-299 343.5,-299 343.5,-299 349.5,-299 355.5,-305 355.5,-311 355.5,-311 355.5,-323 355.5,-323 355.5,-329 349.5,-335 343.5,-335"/>
<text text-anchor="middle" x="288.5" y="-320" font-family="Times,serif" font-size="10.00">Repo: aws&#45;f1&#45;static&#45;site</text>
<text text-anchor="middle" x="288.5" y="-309" font-family="Times,serif" font-size="10.00">(main)</text>
</g>
<!-- DEV&#45;&gt;REPO -->
<g id="edge1" class="edge">
<title>DEV&#45;&gt;REPO</title>
<path fill="none" stroke="black" d="M125.28,-255.05C156.47,-266.97 197.52,-282.64 230.51,-295.24"/>
<polygon fill="black" stroke="black" points="229.44,-298.58 240.03,-298.87 231.94,-292.04 229.44,-298.58"/>
<text text-anchor="middle" x="175.5" y="-281.8" font-family="Times,serif" font-size="9.00">git push</text>
</g>
<!-- S3 -->
<g id="node5" class="node">
<title>S3</title>
<polygon fill="#eef5ff" stroke="black" points="896.5,-200.5 893.5,-204.5 872.5,-204.5 869.5,-200.5 750.5,-200.5 750.5,-159.5 896.5,-159.5 896.5,-200.5"/>
<text text-anchor="middle" x="823.5" y="-188.5" font-family="Times,serif" font-size="10.00">S3 bucket (static website)</text>
<text text-anchor="middle" x="823.5" y="-177.5" font-family="Times,serif" font-size="10.00">Website endpoint</text>
<text text-anchor="middle" x="823.5" y="-166.5" font-family="Times,serif" font-size="10.00">(e.g., f1&#45;homelab&#45;site&#45;…)</text>
</g>
<!-- TF&#45;&gt;S3 -->
<g id="edge4" class="edge">
<title>TF&#45;&gt;S3</title>
<path fill="none" stroke="black" d="M364.17,-229.01C463.3,-218.41 637.74,-199.76 740.45,-188.77"/>
<polygon fill="black" stroke="black" points="740.89,-192.25 750.46,-187.7 740.15,-185.29 740.89,-192.25"/>
<text text-anchor="middle" x="526" y="-231.8" font-family="Times,serif" font-size="9.00">terraform apply</text>
<text text-anchor="middle" x="526" y="-221.8" font-family="Times,serif" font-size="9.00">(create bucket, upload site)</text>
</g>
<!-- IAM -->
<g id="node6" class="node">
<title>IAM</title>
<polygon fill="#eef5ff" stroke="black" points="878.5,-255 768.5,-255 768.5,-251 764.5,-251 764.5,-247 768.5,-247 768.5,-227 764.5,-227 764.5,-223 768.5,-223 768.5,-219 878.5,-219 878.5,-255"/>
<polyline fill="none" stroke="black" points="768.5,-251 772.5,-251 772.5,-247 768.5,-247 "/>
<polyline fill="none" stroke="black" points="768.5,-227 772.5,-227 772.5,-223 768.5,-223 "/>
<text text-anchor="middle" x="823.5" y="-240" font-family="Times,serif" font-size="10.00">IAM user (scoped)</text>
<text text-anchor="middle" x="823.5" y="-229" font-family="Times,serif" font-size="10.00">for Terraform</text>
</g>
<!-- TF&#45;&gt;IAM -->
<g id="edge3" class="edge">
<title>TF&#45;&gt;IAM</title>
<path fill="none" stroke="black" d="M364.32,-247.33C452.31,-257.87 602.65,-270.86 731,-257 739.81,-256.05 749.01,-254.6 758.05,-252.9"/>
<polygon fill="black" stroke="black" points="759.02,-256.27 768.14,-250.89 757.65,-249.41 759.02,-256.27"/>
<text text-anchor="middle" x="526" y="-264.8" font-family="Times,serif" font-size="9.00">AWS API auth</text>
</g>
<!-- GHCI -->
<g id="node4" class="node">
<title>GHCI</title>
<path fill="#fff7e6" stroke="black" d="M582.5,-335C582.5,-335 469.5,-335 469.5,-335 463.5,-335 457.5,-329 457.5,-323 457.5,-323 457.5,-311 457.5,-311 457.5,-305 463.5,-299 469.5,-299 469.5,-299 582.5,-299 582.5,-299 588.5,-299 594.5,-305 594.5,-311 594.5,-311 594.5,-323 594.5,-323 594.5,-329 588.5,-335 582.5,-335"/>
<text text-anchor="middle" x="526" y="-314.5" font-family="Times,serif" font-size="10.00">GitHub Actions (future)</text>
</g>
<!-- REPO&#45;&gt;GHCI -->
<g id="edge6" class="edge">
<title>REPO&#45;&gt;GHCI</title>
<path fill="none" stroke="black" stroke-dasharray="5,2" d="M355.73,-317C384.08,-317 417.4,-317 446.95,-317"/>
<polygon fill="black" stroke="black" points="447.23,-320.5 457.23,-317 447.23,-313.5 447.23,-320.5"/>
<text text-anchor="middle" x="409.5" y="-319.8" font-family="Times,serif" font-size="9.00">CI/CD build</text>
</g>
<!-- GHCI&#45;&gt;S3 -->
<g id="edge7" class="edge">
<title>GHCI&#45;&gt;S3</title>
<path fill="none" stroke="black" stroke-dasharray="5,2" d="M570.65,-298.87C581.12,-294.42 592.24,-289.61 602.5,-285 660.17,-259.1 681.18,-262.92 731,-224 737.35,-219.04 735.95,-214.68 742.5,-210 744.61,-208.49 746.81,-207.05 749.07,-205.67"/>
<polygon fill="black" stroke="black" points="751.02,-208.58 758.06,-200.66 747.62,-202.47 751.02,-208.58"/>
<text text-anchor="middle" x="673" y="-281.8" font-family="Times,serif" font-size="9.00">sync site artifacts</text>
</g>
<!-- CW -->
<g id="node9" class="node">
<title>CW</title>
<path fill="#eaf3ff" stroke="black" d="M585,-106C585,-106 467,-106 467,-106 461,-106 455,-100 455,-94 455,-94 455,-82 455,-82 455,-76 461,-70 467,-70 467,-70 585,-70 585,-70 591,-70 597,-76 597,-82 597,-82 597,-94 597,-94 597,-100 591,-106 585,-106"/>
<text text-anchor="middle" x="526" y="-91" font-family="Times,serif" font-size="10.00">CloudWatch Logs</text>
<text text-anchor="middle" x="526" y="-80" font-family="Times,serif" font-size="10.00">(Access logs/monitoring)</text>
</g>
<!-- S3&#45;&gt;CW -->
<g id="edge11" class="edge">
<title>S3&#45;&gt;CW</title>
<path fill="none" stroke="black" stroke-dasharray="5,2" d="M756.62,-159.49C708.48,-144.5 643.41,-124.24 594.82,-109.12"/>
<polygon fill="black" stroke="black" points="595.62,-105.7 585.03,-106.07 593.54,-112.38 595.62,-105.7"/>
<text text-anchor="middle" x="673" y="-153.8" font-family="Times,serif" font-size="9.00">access logs</text>
</g>
<!-- CF -->
<g id="node7" class="node">
<title>CF</title>
<path fill="#eaf3ff" stroke="black" d="M886,-106C886,-106 761,-106 761,-106 755,-106 749,-100 749,-94 749,-94 749,-82 749,-82 749,-76 755,-70 761,-70 761,-70 886,-70 886,-70 892,-70 898,-76 898,-82 898,-82 898,-94 898,-94 898,-100 892,-106 886,-106"/>
<text text-anchor="middle" x="823.5" y="-91" font-family="Times,serif" font-size="10.00">CloudFront (CDN) + ACM</text>
<text text-anchor="middle" x="823.5" y="-80" font-family="Times,serif" font-size="10.00">HTTPS</text>
</g>
<!-- CF&#45;&gt;S3 -->
<g id="edge9" class="edge">
<title>CF&#45;&gt;S3</title>
<path fill="none" stroke="black" stroke-dasharray="5,2" d="M823.5,-106.18C823.5,-118.36 823.5,-134.72 823.5,-148.94"/>
<polygon fill="black" stroke="black" points="820,-149.29 823.5,-159.29 827,-149.29 820,-149.29"/>
<text text-anchor="middle" x="815.5" y="-130.55" font-family="Times,serif" font-size="9.00">origin</text>
</g>
<!-- R53 -->
<g id="node8" class="node">
<title>R53</title>
<path fill="#eaf3ff" stroke="black" d="M584,-52C584,-52 468,-52 468,-52 462,-52 456,-46 456,-40 456,-40 456,-28 456,-28 456,-22 462,-16 468,-16 468,-16 584,-16 584,-16 590,-16 596,-22 596,-28 596,-28 596,-40 596,-40 596,-46 590,-52 584,-52"/>
<text text-anchor="middle" x="526" y="-31.5" font-family="Times,serif" font-size="10.00">Route 53 (optional DNS)</text>
</g>
<!-- R53&#45;&gt;CF -->
<g id="edge10" class="edge">
<title>R53&#45;&gt;CF</title>
<path fill="none" stroke="black" stroke-dasharray="5,2" d="M596.43,-39.89C636.12,-43.99 686.67,-50.47 731,-60 740.16,-61.97 749.73,-64.43 759.08,-67.07"/>
<polygon fill="black" stroke="black" points="758.13,-70.44 768.71,-69.88 760.09,-63.72 758.13,-70.44"/>
<text text-anchor="middle" x="673" y="-62.8" font-family="Times,serif" font-size="9.00">CNAME/ALIAS</text>
</g>
<!-- USER -->
<g id="node10" class="node">
<title>USER</title>
<ellipse fill="#ffffff" stroke="black" cx="526" cy="-160" rx="52.28" ry="18"/>
<text text-anchor="middle" x="526" y="-157.5" font-family="Times,serif" font-size="10.00">Browser users</text>
</g>
<!-- USER&#45;&gt;S3 -->
<g id="edge5" class="edge">
<title>USER&#45;&gt;S3</title>
<path fill="none" stroke="#555555" d="M577.46,-163.42C622.05,-166.43 687.91,-170.89 740.12,-174.42"/>
<polygon fill="#555555" stroke="#555555" points="740.16,-177.93 750.37,-175.12 740.63,-170.95 740.16,-177.93"/>
<text text-anchor="middle" x="673" y="-175.8" font-family="Times,serif" font-size="9.00">HTTP (website endpoint)</text>
</g>
<!-- USER&#45;&gt;CF -->
<g id="edge8" class="edge">
<title>USER&#45;&gt;CF</title>
<path fill="none" stroke="black" stroke-dasharray="5,2" d="M574.99,-153.44C585.06,-150.16 594.91,-145.27 602.5,-138 615.03,-125.99 601.22,-111.56 615,-101 649.54,-74.53 697.57,-70.11 738.72,-72.84"/>
<polygon fill="black" stroke="black" points="738.5,-76.34 748.75,-73.65 739.06,-69.36 738.5,-76.34"/>
<text text-anchor="middle" x="673" y="-103.8" font-family="Times,serif" font-size="9.00">HTTPS</text>
</g>
</g>
</svg>
